{
.appVersion = "3222";
.formatVersion = 3;
DisplayStrings = (
"ABRAHAM BRUNETTI DETROIT EVANSON FAIRBURN GENOVESE HANRAETS ISBISTER MERRITT NUSSBAUM OSBOURNE ROBINSON STROMAN TRAVIESO VARNHAM ANTONINO BEAUMONT ETHANSON FONTANA GERMANO HERRIOT INGESSON MONTANA NEUMANN OVERTON RUGGERI STEENSEN THOMSON VONNEGUT ABRAHAM BRUNETTI EVANSON FAIRBURN GENOVESE HANRAETS ISBISTER MERRITT NUSSBAUM OSBOURNE ROBINSON STROMAN TRAVIESO VARNHAM ANTONINO BEAUMONT ETHANSON FONTANA GERMANO HERRIOT INGESSON MONTANA NEUMANN OVERTON
RUGGERI STEENSEN THOMSON VONNEGUT",
"hambugerfonstivv
HAMBUGERFONSTIVV",
"Abraham Brunetti Detroit Evanson Fairburn Genovese Hanraets Isbister Merritt NNussbaum Osbourne Robinson Stroman Travieso Varnham Antonino Beaumont Ethanson Fontana Germano Herriot Ingesson Montana Neumann Overton Ruggeri Steensen Thomson Vonnegut Abraham Brunetti Evanson Fairburn Genovese Hanraets Isbister Merritt Nussbaum Osbourne Robinson Stroman Travieso Varnham Antonino Beaumont Ethanson Fontana Germano Herriot Ingesson Montana Neumann Overton Ruggeri Steensen Thomson Vonnegut",
"HHAHOAOO HHBHOBOO HHDHODOO HHEHOEOO HHFHOFOO HHGHOGOO 
HHIHOIOO HHMHOMOO HHNHONOO HHRHOROO HHSHOSOO HHTHOTOO HHUHOUOO HHVHOVOO HHnHOnOO HHoHOoOO
nnanoaoo nnbnoboo nndnodoo nnenoeoo nnfnofoo nngnogoo nnhnohoo nninoioo nnmnomoo nnnnonoo nnrnoroo nnsnosoo nntnotoo nnunouoo nnvnovoo",
"BEAUTIFUL Breese
beautiful breese
Beautiful BREESE"
);
date = "2023-10-16 11:25:55 +0000";
familyName = VER024;
fontMaster = (
{
id = m01;
metricValues = (
{
over = 16;
pos = 800;
},
{
over = 16;
pos = 700;
},
{
over = 16;
pos = 500;
},
{
over = -16;
},
{
over = -16;
pos = -200;
},
{
}
);
name = Regular;
}
);
glyphs = (
{
glyphname = A;
lastChange = "2023-10-19 04:10:11 +0000";
layers = (
{
.lastUpdate = 719381411.442;
layerId = m01;
shapes = (
{
closed = 1;
nodes = (
(70,61,o),
(76,54,o),
(86,54,cs),
(108,54,o),
(146,82,o),
(151,112,cs),
(184,292,o),
(233,543,o),
(261,642,cs),
(262,647,o),
(261,650,o),
(258,650,cs),
(243,650,o),
(177,586,o),
(169,560,cs),
(145,474,o),
(102,236,o),
(73,76,cs)
);
},
{
closed = 1;
nodes = (
(34,148,o),
(-5,38,o),
(-5,7,cs),
(-5,-1,o),
(-2,-4,o),
(4,2,cs),
(22,18,o),
(52,28,o),
(81,28,cs),
(108,28,o),
(134,19,o),
(149,0,cs),
(163,-17,o),
(215,120,o),
(215,159,cs),
(215,184,o),
(165,198,o),
(140,198,cs),
(109,198,o),
(77,187,o),
(54,166,cs)
);
},
{
closed = 1;
nodes = (
(77,406,o),
(20,236,o),
(30,236,cs),
(167,237,o),
(305,237,o),
(443,237,cs),
(455,237,o),
(515,407,o),
(503,407,cs),
(366,406,o),
(228,406,o),
(90,406,cs)
);
},
{
closed = 1;
nodes = (
(356,733,o),
(213,631,o),
(224,611,cs),
(239,580,o),
(279,215,o),
(304,60,cs),
(313,-5,o),
(363,-6,o),
(388,3,cs),
(426,14,o),
(544,147,o),
(504,131,cs),
(462,120,o),
(440,135,o),
(432,184,cs),
(409,329,o),
(380,688,o),
(366,713,cs)
);
}
);
width = 542;
}
);
unicode = 65;
},
{
glyphname = B;
lastChange = "2023-10-19 02:47:22 +0000";
layers = (
{
background = {
shapes = (
{
pos = (10,0);
ref = b;
}
);
};
layerId = m01;
shapes = (
{
closed = 1;
nodes = (
(75,249,o),
(71,213,o),
(71,184,cs),
(71,156,o),
(75,134,o),
(81,134,cs),
(83,134,o),
(87,139,o),
(91,152,cs),
(120,240,o),
(250,292,o),
(339,292,cs),
(388,292,o),
(425,276,o),
(425,241,cs),
(425,222,o),
(414,196,o),
(387,165,cs),
(359,131,o),
(347,102,o),
(347,85,cs),
(347,74,o),
(352,68,o),
(361,68,cs),
(375,68,o),
(397,82,o),
(425,115,cs),
(499,205,o),
(528,275,o),
(528,327,cs),
(528,409,o),
(455,447,o),
(368,447,cs),
(256,447,o),
(120,384,o),
(83,272,cs)
);
},
{
closed = 1;
nodes = (
(228,399,o),
(210,364,o),
(210,344,cs),
(210,333,o),
(215,326,o),
(225,326,cs),
(235,326,o),
(250,332,o),
(270,348,cs),
(430,472,o),
(488,566,o),
(488,628,cs),
(488,685,o),
(437,715,o),
(371,715,cs),
(290,715,o),
(187,671,o),
(126,580,cs),
(110,556,o),
(103,523,o),
(103,496,cs),
(103,466,o),
(111,442,o),
(126,442,cs),
(134,442,o),
(145,449,o),
(156,466,cs),
(204,537,o),
(288,576,o),
(336,576,cs),
(357,576,o),
(371,568,o),
(371,552,cs),
(371,528,o),
(342,488,o),
(266,428,cs)
);
},
{
closed = 1;
nodes = (
(177,592,o),
(173,596,o),
(166,596,cs),
(147,596,o),
(109,564,o),
(107,539,cs),
(60,128,ls),
(59,118,o),
(63,114,o),
(70,114,cs),
(89,114,o),
(127,145,o),
(130,170,cs),
(177,583,l)
);
},
{
closed = 1;
nodes = (
(335,-3,o),
(458,143,o),
(435,147,cs),
(303,172,o),
(218,184,o),
(163,184,cs),
(126,184,o),
(102,179,o),
(86,168,cs),
(67,155,o),
(25,39,o),
(25,7,cs),
(25,0,o),
(27,-3,o),
(32,0,cs),
(36,3,o),
(71,18,o),
(148,18,cs),
(190,18,o),
(245,14,o),
(315,1,cs)
);
}
);
width = 547;
}
);
unicode = 66;
},
{
glyphname = D;
lastChange = "2023-10-19 02:47:22 +0000";
layers = (
{
layerId = m01;
shapes = (
{
closed = 1;
nodes = (
(104,733,o),
(53,604,o),
(53,564,cs),
(53,559,o),
(54,555,o),
(56,554,cs),
(268,387,o),
(353,265,o),
(353,158,cs),
(353,121,o),
(342,85,o),
(323,50,c),
(359,83,o),
(395,115,o),
(431,148,c),
(283,165,o),
(192,184,o),
(135,184,cs),
(106,184,o),
(85,179,o),
(70,167,cs),
(51,152,o),
(10,38,o),
(10,7,cs),
(10,-1,o),
(12,-4,o),
(18,1,cs),
(25,7,o),
(53,12,o),
(111,12,cs),
(159,12,o),
(227,9,o),
(321,-2,cs),
(355,-6,o),
(424,86,o),
(429,96,cs),
(462,157,o),
(477,213,o),
(477,265,cs),
(477,431,o),
(325,561,o),
(118,722,cs)
);
},
{
closed = 1;
nodes = (
(46,82,o),
(67,67,o),
(89,67,cs),
(107,67,o),
(126,78,o),
(128,103,cs),
(142,267,o),
(173,514,o),
(173,609,cs),
(173,629,o),
(171,643,o),
(168,647,cs),
(160,659,o),
(149,665,o),
(137,665,cs),
(116,665,o),
(94,647,o),
(94,625,cs),
(94,618,o),
(97,610,o),
(102,603,cs),
(102,602,o),
(69,349,o),
(48,109,cs)
);
}
);
width = 499;
}
);
unicode = 68;
},
{
glyphname = E;
lastChange = "2023-10-19 03:27:02 +0000";
layers = (
{
.lastUpdate = 719378822.189;
layerId = m01;
shapes = (
{
closed = 1;
nodes = (
(184,628,o),
(161,644,o),
(139,644,cs),
(121,644,o),
(104,634,o),
(101,610,cs),
(78,415,o),
(59,220,o),
(36,32,cs),
(33,6,o),
(38,-2,o),
(45,-2,cs),
(50,-2,o),
(56,3,o),
(60,6,cs),
(76,21,o),
(98,28,o),
(124,28,cs),
(139,28,o),
(157,25,o),
(175,19,cs),
(212,8,o),
(254,-2,o),
(294,-2,cs),
(329,-2,o),
(361,5,o),
(384,25,cs),
(402,40,o),
(434,149,o),
(434,185,cs),
(434,196,o),
(432,200,o),
(426,195,cs),
(407,180,o),
(374,173,o),
(338,173,cs),
(304,173,o),
(267,179,o),
(237,189,cs),
(217,195,o),
(200,199,o),
(183,199,cs),
(156,199,o),
(130,188,o),
(96,160,c),
(104,151,o),
(112,143,o),
(120,134,c),
(139,294,o),
(162,447,o),
(181,600,cs)
);
},
{
closed = 1;
nodes = (
(76,438,o),
(30,314,o),
(30,278,cs),
(30,272,o),
(31,268,o),
(34,268,cs),
(142,269,o),
(250,269,o),
(357,269,cs),
(374,269,o),
(421,392,o),
(421,429,cs),
(421,435,o),
(420,439,o),
(417,439,cs),
(309,438,o),
(201,438,o),
(94,438,cs)
);
},
{
closed = 1;
nodes = (
(440,545,o),
(473,657,o),
(473,693,cs),
(473,703,o),
(471,708,o),
(465,703,cs),
(455,696,o),
(435,693,o),
(409,693,cs),
(355,693,o),
(276,705,o),
(209,705,cs),
(164,705,o),
(125,699,o),
(103,681,cs),
(85,666,o),
(54,556,o),
(54,520,cs),
(54,511,o),
(56,507,o),
(61,511,cs),
(80,526,o),
(113,531,o),
(153,531,cs),
(216,531,o),
(294,519,o),
(352,519,cs),
(383,519,o),
(409,522,o),
(423,533,cs)
);
}
);
width = 483;
}
);
unicode = 69;
},
{
glyphname = F;
lastChange = "2023-10-19 03:50:38 +0000";
layers = (
{
.lastUpdate = 719380238.047;
layerId = m01;
shapes = (
{
closed = 1;
nodes = (
(198,685,o),
(194,693,o),
(188,693,cs),
(166,693,o),
(116,609,o),
(112,551,cs),
(99,389,o),
(93,236,o),
(81,80,cs),
(81,71,o),
(85,67,o),
(91,67,cs),
(110,67,o),
(149,98,o),
(151,124,cs),
(164,305,o),
(183,490,o),
(196,665,cs)
);
},
{
closed = 1;
nodes = (
(449,552,o),
(478,657,o),
(478,693,cs),
(478,704,o),
(476,709,o),
(469,702,cs),
(458,692,o),
(426,689,o),
(386,689,cs),
(329,689,o),
(256,695,o),
(201,695,cs),
(168,695,o),
(142,693,o),
(129,687,cs),
(111,677,o),
(70,560,o),
(70,526,cs),
(70,519,o),
(72,515,o),
(77,517,cs),
(86,522,o),
(105,524,o),
(129,524,cs),
(184,524,o),
(267,515,o),
(332,515,cs),
(377,515,o),
(414,519,o),
(429,534,cs)
);
},
{
closed = 1;
nodes = (
(378,282,o),
(411,394,o),
(411,432,cs),
(411,442,o),
(409,447,o),
(404,444,cs),
(394,439,o),
(371,437,o),
(342,437,cs),
(295,437,o),
(233,441,o),
(183,441,cs),
(145,441,o),
(115,439,o),
(101,431,cs),
(83,420,o),
(50,308,o),
(50,270,cs),
(50,261,o),
(52,256,o),
(57,259,cs),
(68,265,o),
(93,267,o),
(125,267,cs),
(173,267,o),
(236,263,o),
(285,263,cs),
(320,263,o),
(348,265,o),
(360,272,cs)
);
},
{
closed = 1;
nodes = (
(44,148,o),
(5,38,o),
(5,7,cs),
(5,-1,o),
(8,-4,o),
(14,2,cs),
(32,18,o),
(62,28,o),
(91,28,cs),
(118,28,o),
(144,19,o),
(159,0,cs),
(173,-17,o),
(225,120,o),
(225,159,cs),
(225,163,o),
(224,166,o),
(223,168,cs),
(207,188,o),
(180,198,o),
(150,198,cs),
(119,198,o),
(87,187,o),
(64,166,cs)
);
}
);
width = 453;
}
);
unicode = 70;
},
{
glyphname = G;
lastChange = "2023-10-19 03:30:31 +0000";
layers = (
{
.lastUpdate = 719379031.529;
layerId = m01;
shapes = (
{
closed = 1;
nodes = (
(400,619,o),
(405,626,o),
(405,631,cs),
(405,636,o),
(401,638,o),
(394,638,cs),
(378,638,o),
(349,627,o),
(323,606,cs),
(111,428,o),
(20,262,o),
(20,145,cs),
(20,85,o),
(44,38,o),
(87,9,cs),
(107,-5,o),
(131,-13,o),
(158,-13,cs),
(229,-13,o),
(322,48,o),
(425,239,cs),
(445,277,o),
(448,294,o),
(441,294,cs),
(431,294,o),
(396,254,o),
(365,197,cs),
(364,194,o),
(319,122,o),
(259,122,cs),
(245,122,o),
(229,126,o),
(213,137,cs),
(169,167,o),
(145,208,o),
(145,260,cs),
(145,348,o),
(217,466,o),
(387,608,cs)
);
},
{
closed = 1;
nodes = (
(269,357,o),
(200,257,o),
(217,257,cs),
(220,257,o),
(226,260,o),
(235,267,cs),
(242,273,o),
(255,277,o),
(268,277,cs),
(297,277,o),
(330,260,o),
(327,200,cs),
(324,135,o),
(315,72,o),
(308,6,cs),
(307,-4,o),
(307,-14,o),
(307,-22,cs),
(307,-67,o),
(321,-83,o),
(346,-100,cs),
(362,-111,o),
(489,16,o),
(472,28,cs),
(455,40,o),
(447,48,o),
(447,78,cs),
(447,88,o),
(448,99,o),
(450,114,cs),
(456,178,o),
(465,244,o),
(469,308,cs),
(471,365,o),
(427,414,o),
(374,414,cs),
(353,414,o),
(332,407,o),
(311,391,cs)
);
},
{
closed = 1;
nodes = (
(406,556,o),
(443,662,o),
(443,693,cs),
(443,701,o),
(440,704,o),
(433,696,cs),
(421,684,o),
(383,675,o),
(344,675,cs),
(307,675,o),
(268,683,o),
(249,701,cs),
(235,714,o),
(183,583,o),
(183,543,cs),
(183,538,o),
(183,535,o),
(185,533,cs),
(206,514,o),
(245,505,o),
(285,505,cs),
(326,505,o),
(367,515,o),
(385,534,cs)
);
}
);
width = 514;
}
);
unicode = 71;
},
{
glyphname = H;
lastChange = "2023-10-19 03:44:04 +0000";
layers = (
{
.lastUpdate = 719379844.811;
layerId = m01;
shapes = (
{
closed = 1;
nodes = (
(89,438,o),
(28,268,o),
(49,268,cs),
(193,269,o),
(338,269,o),
(482,269,cs),
(501,269,o),
(563,439,o),
(542,439,cs),
(398,438,o),
(253,438,o),
(109,438,cs)
);
},
{
closed = 1;
nodes = (
(173,702,o),
(43,571,o),
(82,580,cs),
(91,583,o),
(102,564,o),
(97,488,cs),
(87,361,o),
(77,234,o),
(68,106,cs),
(62,39,o),
(86,-6,o),
(109,-2,cs),
(139,3,o),
(266,136,o),
(231,130,cs),
(196,124,o),
(208,155,o),
(212,218,cs),
(222,345,o),
(232,472,o),
(241,600,cs),
(246,660,o),
(235,717,o),
(204,710,cs)
);
},
{
closed = 1;
nodes = (
(442,702,o),
(312,571,o),
(351,580,cs),
(360,583,o),
(371,564,o),
(366,488,cs),
(356,361,o),
(346,234,o),
(337,106,cs),
(331,39,o),
(355,-6,o),
(378,-2,cs),
(408,3,o),
(535,136,o),
(500,130,cs),
(465,124,o),
(477,155,o),
(481,218,cs),
(491,345,o),
(501,472,o),
(510,600,cs),
(515,660,o),
(504,717,o),
(473,710,cs)
);
}
);
width = 591;
}
);
unicode = 72;
},
{
glyphname = I;
lastChange = "2023-10-19 02:58:17 +0000";
layers = (
{
layerId = m01;
shapes = (
{
closed = 1;
nodes = (
(151,693,o),
(21,562,o),
(60,571,cs),
(69,574,o),
(80,558,o),
(75,488,cs),
(65,361,o),
(55,234,o),
(46,106,cs),
(40,39,o),
(64,-6,o),
(87,-2,cs),
(117,3,o),
(244,136,o),
(209,130,cs),
(174,124,o),
(186,155,o),
(190,218,cs),
(200,345,o),
(210,472,o),
(219,600,cs),
(224,654,o),
(213,708,o),
(182,701,cs)
);
}
);
width = 265;
}
);
unicode = 73;
},
{
glyphname = L;
lastChange = "2023-10-19 02:47:22 +0000";
layers = (
{
layerId = m01;
shapes = (
{
closed = 1;
nodes = (
(138,178,o),
(79,50,o),
(96,50,cs),
(98,50,o),
(101,52,o),
(106,57,cs),
(128,78,o),
(146,87,o),
(161,87,cs),
(212,87,o),
(236,-2,o),
(304,-2,cs),
(318,-2,o),
(335,2,o),
(354,12,cs),
(373,22,o),
(417,138,o),
(417,172,cs),
(417,179,o),
(415,183,o),
(410,180,cs),
(392,171,o),
(377,167,o),
(364,167,cs),
(304,167,o),
(290,249,o),
(241,249,cs),
(223,249,o),
(200,238,o),
(168,207,cs)
);
},
{
closed = 1;
nodes = (
(168,726,o),
(38,603,o),
(48,584,cs),
(59,563,o),
(66,553,o),
(64,531,cs),
(32,108,l),
(31,83,o),
(30,65,o),
(30,50,cs),
(30,24,o),
(32,10,o),
(35,-2,cs),
(42,-27,o),
(156,112,o),
(151,134,cs),
(150,138,o),
(169,156,o),
(174,216,c),
(204,627,l),
(204,667,o),
(194,679,o),
(178,708,cs)
);
}
);
width = 467;
}
);
unicode = 76;
},
{
glyphname = M;
lastChange = "2023-10-19 03:53:10 +0000";
layers = (
{
.lastUpdate = 719380390.441;
layerId = m01;
shapes = (
{
closed = 1;
nodes = (
(266,723,o),
(145,604,o),
(156,586,cs),
(226,475,o),
(257,52,o),
(312,1,cs),
(326,-12,o),
(447,108,o),
(432,121,cs),
(381,168,o),
(348,591,o),
(276,706,cs)
);
},
{
closed = 1;
nodes = (
(54,98,o),
(53,93,o),
(53,90,cs),
(53,80,o),
(59,76,o),
(67,76,cs),
(87,76,o),
(120,98,o),
(131,128,cs),
(212,368,o),
(219,645,o),
(219,648,cs),
(221,672,o),
(148,607,o),
(147,584,cs),
(146,573,o),
(132,329,o),
(56,103,cs)
);
},
{
closed = 1;
nodes = (
(323,154,o),
(322,149,o),
(322,145,cs),
(322,135,o),
(328,131,o),
(337,131,cs),
(355,131,o),
(387,151,o),
(399,180,cs),
(486,401,o),
(544,600,o),
(547,623,cs),
(548,636,o),
(542,641,o),
(532,641,cs),
(509,641,o),
(467,613,o),
(463,585,cs),
(462,578,o),
(410,373,o),
(325,160,cs)
);
},
{
closed = 1;
nodes = (
(603,749,o),
(474,625,o),
(474,597,cs),
(478,469,o),
(476,5,o),
(549,2,cs),
(573,1,o),
(692,123,o),
(665,124,cs),
(600,127,o),
(608,582,o),
(604,719,cs)
);
},
{
closed = 1;
nodes = (
(19,147,o),
(-20,37,o),
(-20,6,cs),
(-20,-2,o),
(-17,-4,o),
(-11,2,cs),
(6,18,o),
(37,28,o),
(68,28,cs),
(96,28,o),
(124,19,o),
(138,0,cs),
(151,-17,o),
(204,120,o),
(204,159,cs),
(204,163,o),
(203,166,o),
(202,168,cs),
(187,188,o),
(158,198,o),
(127,198,cs),
(95,198,o),
(61,187,o),
(39,166,cs)
);
}
);
width = 684;
}
);
unicode = 77;
},
{
glyphname = N;
lastChange = "2023-10-19 04:17:11 +0000";
layers = (
{
.lastUpdate = 719381831.438;
layerId = m01;
shapes = (
{
closed = 1;
nodes = (
(210,726,o),
(89,607,o),
(99,589,cs),
(190,426,o),
(290,129,o),
(393,6,cs),
(405,-9,o),
(526,111,o),
(513,126,cs),
(412,247,o),
(312,544,o),
(221,707,cs)
);
},
{
closed = 1;
nodes = (
(73,128,o),
(72,123,o),
(72,119,cs),
(72,96,o),
(93,80,o),
(114,80,cs),
(128,80,o),
(143,87,o),
(149,105,cs),
(173,167,o),
(195,570,o),
(195,573,cs),
(197,600,o),
(175,615,o),
(154,615,cs),
(135,615,o),
(117,604,o),
(115,579,cs),
(114,564,o),
(91,175,o),
(75,133,cs)
);
},
{
closed = 1;
nodes = (
(29,150,o),
(-10,40,o),
(-10,9,cs),
(-10,1,o),
(-7,-2,o),
(-1,4,cs),
(17,20,o),
(47,30,o),
(76,30,cs),
(103,30,o),
(129,21,o),
(144,2,cs),
(158,-15,o),
(210,122,o),
(210,161,cs),
(210,165,o),
(209,168,o),
(208,170,cs),
(192,190,o),
(165,200,o),
(135,200,cs),
(104,200,o),
(72,189,o),
(49,168,cs)
);
},
{
closed = 1;
nodes = (
(559,565,o),
(597,673,o),
(597,704,cs),
(597,712,o),
(595,715,o),
(588,709,cs),
(570,693,o),
(540,683,o),
(511,683,cs),
(484,683,o),
(458,692,o),
(443,711,cs),
(430,727,o),
(377,594,o),
(377,553,cs),
(377,549,o),
(377,545,o),
(379,543,cs),
(395,523,o),
(422,513,o),
(452,513,cs),
(483,513,o),
(515,524,o),
(538,545,cs)
);
},
{
closed = 1;
nodes = (
(398,128,o),
(397,123,o),
(397,119,cs),
(397,96,o),
(418,80,o),
(439,80,cs),
(453,80,o),
(468,87,o),
(474,105,cs),
(498,167,o),
(520,570,o),
(520,573,cs),
(522,600,o),
(500,615,o),
(479,615,cs),
(460,615,o),
(442,604,o),
(440,579,cs),
(439,564,o),
(416,175,o),
(400,133,cs)
);
}
);
width = 607;
}
);
unicode = 78;
},
{
glyphname = O;
lastChange = "2023-10-19 02:54:20 +0000";
layers = (
{
layerId = m01;
shapes = (
{
closed = 1;
nodes = (
(81,460,o),
(30,289,o),
(30,168,cs),
(30,58,o),
(72,-11,o),
(170,-11,cs),
(180,-11,o),
(190,-10,o),
(201,-9,cs),
(252,-2,o),
(294,60,o),
(303,69,cs),
(403,167,o),
(439,258,o),
(439,339,cs),
(439,521,o),
(261,656,o),
(215,713,cs),
(212,716,o),
(207,721,o),
(169,642,cs)
);
},
{
closed = 1;
nodes = (
(168,598,o),
(153,574,o),
(137,551,c),
(186,491,o),
(314,358,o),
(314,214,cs),
(314,154,o),
(291,92,o),
(231,33,c),
(265,59,o),
(299,85,o),
(333,111,c),
(323,109,o),
(313,109,o),
(304,109,cs),
(176,109,o),
(139,235,o),
(139,364,cs),
(139,473,o),
(165,584,o),
(183,622,c)
);
}
);
width = 469;
}
);
unicode = 79;
},
{
glyphname = R;
lastChange = "2023-10-19 03:51:45 +0000";
layers = (
{
.lastUpdate = 719380305.96;
layerId = m01;
shapes = (
{
closed = 1;
nodes = (
(234,318,o),
(214,282,o),
(214,261,cs),
(214,251,o),
(219,244,o),
(230,244,cs),
(240,244,o),
(256,251,o),
(278,268,cs),
(420,381,o),
(471,483,o),
(471,561,cs),
(471,651,o),
(402,713,o),
(324,714,cs),
(256,715,o),
(181,664,o),
(142,562,cs),
(80,401,o),
(87,283,o),
(66,96,cs),
(64,83,o),
(70,77,o),
(79,77,cs),
(101,77,o),
(141,109,o),
(144,138,cs),
(169,350,o),
(186,509,o),
(188,514,cs),
(198,541,o),
(223,552,o),
(249,552,cs),
(295,552,o),
(348,518,o),
(348,465,cs),
(348,432,o),
(328,392,o),
(272,348,cs)
);
},
{
closed = 1;
nodes = (
(221,645,o),
(222,651,o),
(222,655,cs),
(222,661,o),
(220,664,o),
(218,664,cs),
(206,664,o),
(163,577,o),
(152,518,cs),
(149,498,o),
(147,477,o),
(147,456,cs),
(147,215,o),
(389,-9,o),
(442,10,cs),
(464,18,o),
(538,172,o),
(518,172,cs),
(515,172,o),
(510,170,o),
(505,170,cs),
(424,170,o),
(216,423,o),
(216,602,cs),
(216,614,o),
(217,626,o),
(220,638,cs)
);
},
{
closed = 1;
nodes = (
(29,148,o),
(-10,38,o),
(-10,7,cs),
(-10,-1,o),
(-7,-4,o),
(-1,2,cs),
(17,18,o),
(47,28,o),
(76,28,cs),
(103,28,o),
(129,19,o),
(144,0,cs),
(158,-17,o),
(210,120,o),
(210,159,cs),
(210,163,o),
(209,166,o),
(208,168,cs),
(192,188,o),
(165,198,o),
(135,198,cs),
(104,198,o),
(72,187,o),
(49,166,cs)
);
}
);
width = 531;
}
);
unicode = 82;
},
{
glyphname = S;
lastChange = "2023-10-19 04:17:42 +0000";
layers = (
{
.lastUpdate = 719381862.679;
layerId = m01;
shapes = (
{
closed = 1;
nodes = (
(270,465,o),
(269,462,o),
(269,459,cs),
(269,457,o),
(270,456,o),
(272,456,cs),
(289,456,o),
(375,534,o),
(396,574,cs),
(401,585,o),
(404,599,o),
(404,612,cs),
(404,661,o),
(369,714,o),
(306,714,cs),
(273,714,o),
(231,699,o),
(184,660,cs),
(133,618,o),
(98,565,o),
(113,565,cs),
(118,565,o),
(130,572,o),
(150,588,cs),
(156,594,o),
(165,596,o),
(174,596,cs),
(215,596,o),
(280,550,o),
(280,499,cs),
(280,490,o),
(277,480,o),
(272,470,cs)
);
},
{
closed = 1;
nodes = (
(170,629,o),
(169,631,o),
(166,631,cs),
(150,631,o),
(57,545,o),
(41,509,cs),
(32,489,o),
(28,470,o),
(28,453,cs),
(28,388,o),
(88,345,o),
(143,294,cs),
(195,246,o),
(253,207,o),
(253,142,cs),
(253,125,o),
(249,107,o),
(241,86,cs),
(226,49,o),
(351,163,o),
(367,202,cs),
(378,228,o),
(383,250,o),
(383,269,cs),
(383,340,o),
(316,368,o),
(265,416,cs),
(210,467,o),
(157,516,o),
(157,576,cs),
(157,591,o),
(160,606,o),
(167,623,cs)
);
},
{
closed = 1;
nodes = (
(120,235,o),
(119,238,o),
(116,238,cs),
(97,238,o),
(5,152,o),
(-9,117,cs),
(-13,107,o),
(-15,98,o),
(-15,89,cs),
(-15,38,o),
(40,-1,o),
(106,-1,cs),
(132,-1,o),
(159,4,o),
(186,18,cs),
(226,39,o),
(308,132,o),
(286,132,cs),
(284,132,o),
(280,131,o),
(274,128,cs),
(260,120,o),
(244,117,o),
(228,117,cs),
(170,117,o),
(113,161,o),
(113,206,cs),
(113,213,o),
(114,220,o),
(117,227,cs)
);
}
);
width = 419;
}
);
unicode = 83;
},
{
glyphname = T;
lastChange = "2023-10-19 03:30:49 +0000";
layers = (
{
.lastUpdate = 719379049.982;
layerId = m01;
shapes = (
{
closed = 1;
nodes = (
(416,546,o),
(456,642,o),
(456,681,cs),
(456,695,o),
(451,702,o),
(439,696,cs),
(428,691,o),
(408,689,o),
(384,689,cs),
(334,689,o),
(263,696,o),
(202,696,cs),
(151,696,o),
(105,691,o),
(84,672,cs),
(65,656,o),
(35,547,o),
(35,511,cs),
(35,501,o),
(37,497,o),
(42,502,cs),
(60,518,o),
(103,522,o),
(152,522,cs),
(195,522,o),
(244,519,o),
(287,519,cs),
(329,519,o),
(366,522,o),
(387,532,cs)
);
},
{
closed = 1;
nodes = (
(319,593,o),
(323,603,o),
(323,610,cs),
(323,621,o),
(315,627,o),
(304,627,cs),
(291,627,o),
(275,620,o),
(262,602,cs),
(130,432,o),
(68,246,o),
(68,156,cs),
(68,63,o),
(117,0,o),
(193,0,cs),
(197,0,o),
(202,0,o),
(207,1,cs),
(235,4,o),
(370,117,o),
(337,113,cs),
(277,107,o),
(199,184,o),
(199,281,cs),
(199,330,o),
(218,462,o),
(310,582,cs)
);
}
);
width = 416;
}
);
unicode = 84;
},
{
glyphname = U;
lastChange = "2023-10-19 03:26:13 +0000";
layers = (
{
.lastUpdate = 719378773.635;
layerId = m01;
shapes = (
{
closed = 1;
nodes = (
(405,376,o),
(365,382,o),
(362,355,cs),
(335,114,o),
(263,124,o),
(251,124,cs),
(202,120,o),
(190,203,o),
(199,293,cs),
(209,391,o),
(219,490,o),
(229,589,cs),
(236,657,o),
(204,716,o),
(152,699,cs),
(119,688,o),
(-3,558,o),
(38,571,cs),
(82,586,o),
(90,543,o),
(85,495,cs),
(75,397,o),
(65,298,o),
(55,199,cs),
(44,96,o),
(107,-23,o),
(203,-16,cs),
(327,-6,o),
(387,220,o),
(402,351,cs)
);
},
{
closed = 1;
nodes = (
(471,-9,o),
(585,110,o),
(551,105,cs),
(495,97,o),
(473,200,o),
(482,293,cs),
(493,391,o),
(503,490,o),
(513,589,cs),
(520,657,o),
(487,716,o),
(435,699,cs),
(402,688,o),
(280,558,o),
(321,571,cs),
(365,586,o),
(374,543,o),
(369,495,cs),
(358,397,o),
(348,298,o),
(338,199,cs),
(326,88,o),
(372,-23,o),
(443,-13,cs)
);
}
);
width = 602;
}
);
unicode = 85;
},
{
glyphname = V;
kernLeft = v;
kernRight = v;
lastChange = "2023-10-19 04:12:11 +0000";
layers = (
{
.lastUpdate = 719381531.285;
layerId = m01;
shapes = (
{
closed = 1;
nodes = (
(493,648,o),
(427,670,o),
(413,625,cs),
(353,420,o),
(250,100,o),
(236,13,cs),
(233,-8,o),
(335,73,o),
(338,91,cs),
(348,156,o),
(429,430,o),
(481,605,cs)
);
},
{
closed = 1;
nodes = (
(527,572,o),
(581,740,o),
(550,711,cs),
(516,680,o),
(435,674,o),
(405,713,cs),
(391,731,o),
(326,564,o),
(341,545,cs),
(373,504,o),
(456,506,o),
(500,547,cs)
);
},
{
closed = 1;
nodes = (
(229,-16,o),
(382,102,o),
(327,102,cs),
(275,102,o),
(239,476,o),
(209,634,cs),
(199,688,o),
(152,720,o),
(118,710,cs),
(86,700,o),
(-37,570,o),
(2,582,cs),
(40,594,o),
(71,562,o),
(81,510,cs),
(105,382,o),
(107,-16,o),
(185,-16,cs)
);
}
);
width = 509;
}
);
unicode = 86;
},
{
glyphname = a;
lastChange = "2023-10-19 03:59:44 +0000";
layers = (
{
.lastUpdate = 719380784.275;
layerId = m01;
shapes = (
{
closed = 1;
nodes = (
(55,-28,o),
(134,18,o),
(138,60,cs),
(152,187,o),
(177,332,o),
(184,370,cs),
(210,500,o),
(232,557,o),
(254,561,cs),
(308,571,o),
(316,499,o),
(305,409,cs),
(293,310,o),
(283,212,o),
(272,113,cs),
(264,48,o),
(276,9,o),
(310,1,cs),
(330,-4,o),
(458,124,o),
(434,129,cs),
(409,135,o),
(411,154,o),
(416,205,cs),
(428,304,o),
(438,402,o),
(450,501,cs),
(462,603,o),
(411,732,o),
(306,713,cs),
(157,686,o),
(122,466,o),
(106,386,cs),
(98,350,o),
(75,159,o),
(60,18,cs)
);
},
{
closed = 1;
nodes = (
(74,425,o),
(13,255,o),
(34,255,cs),
(172,256,o),
(309,256,o),
(447,256,cs),
(466,256,o),
(528,426,o),
(507,426,cs),
(369,425,o),
(232,425,o),
(94,425,cs)
);
}
);
width = 541;
}
);
unicode = 97;
},
{
glyphname = b;
lastChange = "2023-10-19 02:51:53 +0000";
layers = (
{
layerId = m01;
shapes = (
{
closed = 1;
nodes = (
(47,207,o),
(60,101,o),
(80,184,cs),
(99,265,o),
(207,311,o),
(288,300,cs),
(358,291,o),
(408,239,o),
(368,133,cs),
(346,76,o),
(456,196,o),
(476,249,cs),
(528,385,o),
(432,459,o),
(319,462,cs),
(214,465,o),
(95,406,o),
(64,278,cs)
);
},
{
closed = 1;
nodes = (
(161,377,o),
(150,285,o),
(231,345,cs),
(375,450,o),
(432,540,o),
(438,606,cs),
(444,675,o),
(393,716,o),
(326,715,cs),
(238,714,o),
(122,643,o),
(67,473,cs),
(33,364,o),
(111,342,o),
(147,455,cs),
(167,521,o),
(228,553,o),
(271,556,cs),
(324,558,o),
(349,515,o),
(235,431,cs)
);
},
{
closed = 1;
nodes = (
(159,497,o),
(83,521,o),
(68,469,cs),
(43,378,o),
(34,219,o),
(34,145,cs),
(34,92,o),
(120,99,o),
(120,153,cs),
(120,213,o),
(125,372,o),
(146,449,cs)
);
},
{
closed = 1;
nodes = (
(505,362,o),
(462,323,o),
(435,228,cs),
(419,170,o),
(318,141,o),
(237,154,cs),
(164,166,o),
(108,213,o),
(149,303,cs),
(177,367,o),
(70,255,o),
(43,195,cs),
(-2,94,o),
(77,-4,o),
(183,-17,cs),
(286,-29,o),
(416,39,o),
(479,266,cs)
);
}
);
width = 526;
}
);
unicode = 98;
},
{
glyphname = d;
lastChange = "2023-10-19 02:47:22 +0000";
layers = (
{
layerId = m01;
shapes = (
{
closed = 1;
nodes = (
(125,726,o),
(61,558,o),
(79,545,cs),
(348,338,o),
(416,192,o),
(321,14,cs),
(292,-40,o),
(414,61,o),
(443,116,cs),
(560,336,o),
(415,502,o),
(141,713,cs)
);
},
{
closed = 1;
nodes = (
(179,606,o),
(100,614,o),
(95,561,cs),
(82,408,o),
(68,255,o),
(55,102,cs),
(51,51,o),
(130,44,o),
(135,96,cs),
(148,249,o),
(162,402,o),
(175,555,cs)
);
},
{
closed = 1;
nodes = (
(74,220,o),
(11,52,o),
(28,39,cs),
(95,-17,o),
(236,-27,o),
(326,0,cs),
(347,6,o),
(405,177,o),
(380,170,cs),
(296,145,o),
(155,155,o),
(90,207,cs)
);
}
);
width = 527;
}
);
unicode = 100;
},
{
glyphname = e;
lastChange = "2023-10-19 02:47:22 +0000";
layers = (
{
layerId = m01;
shapes = (
{
closed = 1;
nodes = (
(320,455,o),
(448,583,o),
(441,602,cs),
(404,705,o),
(327,738,o),
(275,712,cs),
(39,592,o),
(57,134,o),
(42,39,cs),
(34,-10,o),
(52,3,o),
(54,4,cs),
(99,19,o),
(131,27,o),
(181,18,cs),
(239,8,o),
(327,-14,o),
(377,27,cs),
(404,49,o),
(459,218,o),
(429,193,cs),
(391,162,o),
(299,178,o),
(241,188,cs),
(197,195,o),
(161,197,o),
(116,180,c),
(120,169,o),
(124,157,o),
(128,145,c),
(165,380,o),
(182,530,o),
(229,554,cs),
(243,561,o),
(276,579,o),
(313,476,cs)
);
},
{
closed = 1;
nodes = (
(73,438,o),
(13,268,o),
(34,268,cs),
(142,269,o),
(250,269,o),
(357,269,cs),
(377,269,o),
(439,439,o),
(417,439,cs),
(309,438,o),
(201,438,o),
(94,438,cs)
);
}
);
width = 471;
}
);
unicode = 101;
},
{
glyphname = f;
lastChange = "2023-10-19 02:53:52 +0000";
layers = (
{
layerId = m01;
shapes = (
{
closed = 1;
nodes = (
(458,583,o),
(503,743,o),
(467,695,cs),
(441,662,o),
(374,650,o),
(330,650,cs),
(275,650,o),
(213,672,o),
(180,701,cs),
(150,729,o),
(101,569,o),
(101,564,cs),
(86,375,o),
(71,196,o),
(57,13,cs),
(53,-32,o),
(132,16,o),
(135,57,cs),
(152,264,o),
(169,475,o),
(185,676,c),
(159,630,o),
(132,584,o),
(106,539,c),
(145,502,o),
(213,480,o),
(270,480,cs),
(322,480,o),
(379,480,o),
(425,541,cs)
);
},
{
closed = 1;
nodes = (
(364,226,o),
(414,399,o),
(393,400,cs),
(295,400,o),
(196,401,o),
(98,402,cs),
(79,402,o),
(29,229,o),
(50,228,cs),
(148,228,o),
(247,227,o),
(345,226,cs)
);
}
);
width = 480;
}
);
unicode = 102;
},
{
glyphname = g;
lastChange = "2023-10-19 04:13:03 +0000";
layers = (
{
.lastUpdate = 719381583.92;
background = {
shapes = (
{
pos = (46,0);
ref = G;
}
);
};
layerId = m01;
shapes = (
{
closed = 1;
nodes = (
(283,350,o),
(195,218,o),
(256,266,cs),
(278,284,o),
(354,296,o),
(348,209,cs),
(346,168,o),
(338,126,o),
(333,85,cs),
(325,14,o),
(342,-8,o),
(358,-15,cs),
(377,-23,o),
(504,104,o),
(484,113,cs),
(473,118,o),
(466,125,o),
(475,193,cs),
(480,234,o),
(487,275,o),
(490,317,cs),
(494,397,o),
(406,448,o),
(332,390,cs)
);
},
{
closed = 1;
nodes = (
(369,475,o),
(496,603,o),
(485,618,cs),
(440,679,o),
(391,710,o),
(339,708,cs),
(283,706,o),
(223,666,o),
(163,584,cs),
(-90,242,o),
(57,-177,o),
(281,47,cs),
(326,92,o),
(432,314,o),
(436,326,cs),
(450,369,o),
(383,338,o),
(370,298,cs),
(335,192,o),
(293,157,o),
(293,157,cs),
(152,17,o),
(112,414,o),
(195,526,cs),
(199,531,o),
(253,633,o),
(357,492,cs)
);
}
);
width = 535;
}
);
unicode = 103;
},
{
glyphname = h;
lastChange = "2023-10-19 02:47:22 +0000";
layers = (
{
layerId = m01;
shapes = (
{
closed = 1;
nodes = (
(89,427,o),
(28,257,o),
(49,257,cs),
(193,258,o),
(338,258,o),
(482,258,cs),
(501,258,o),
(563,428,o),
(542,428,cs),
(398,427,o),
(253,427,o),
(109,427,cs)
);
},
{
closed = 1;
nodes = (
(210,716,o),
(80,593,o),
(90,574,cs),
(107,542,o),
(108,538,o),
(103,490,cs),
(92,362,o),
(84,234,o),
(74,106,cs),
(69,39,o),
(83,20,o),
(112,0,cs),
(128,-11,o),
(255,116,o),
(238,128,cs),
(215,144,o),
(211,153,o),
(216,214,cs),
(225,342,o),
(233,470,o),
(245,598,cs),
(249,652,o),
(239,664,o),
(220,698,cs)
);
},
{
closed = 1;
nodes = (
(478,716,o),
(348,593,o),
(358,574,cs),
(375,542,o),
(375,538,o),
(371,490,cs),
(362,362,o),
(352,234,o),
(342,106,cs),
(337,39,o),
(351,20,o),
(380,0,cs),
(396,-11,o),
(523,116,o),
(506,128,cs),
(483,144,o),
(479,153,o),
(484,214,cs),
(493,342,o),
(503,470,o),
(513,598,cs),
(517,652,o),
(507,664,o),
(488,698,cs)
);
}
);
width = 591;
}
);
unicode = 104;
},
{
glyphname = i;
kernLeft = i;
kernRight = i;
lastChange = "2023-10-19 03:47:17 +0000";
layers = (
{
.lastUpdate = 719380037.19;
layerId = m01;
shapes = (
{
closed = 1;
nodes = (
(187,726,o),
(57,603,o),
(67,584,cs),
(84,553,o),
(85,548,o),
(80,490,cs),
(70,362,o),
(61,234,o),
(51,106,cs),
(46,39,o),
(60,20,o),
(89,0,cs),
(105,-11,o),
(232,116,o),
(215,128,cs),
(192,144,o),
(188,153,o),
(193,214,cs),
(202,342,o),
(211,470,o),
(222,598,cs),
(227,662,o),
(216,673,o),
(197,708,cs)
);
}
);
width = 273;
}
);
unicode = 105;
},
{
glyphname = l;
lastChange = "2023-10-19 02:47:22 +0000";
layers = (
{
layerId = m01;
shapes = (
{
closed = 1;
nodes = (
(158,713,o),
(27,583,o),
(43,570,cs),
(48,567,o),
(66,543,o),
(62,488,cs),
(52,365,o),
(42,242,o),
(33,118,cs),
(27,54,o),
(28,0,o),
(73,0,cs),
(99,0,o),
(230,152,o),
(197,152,cs),
(174,152,o),
(172,165,o),
(177,230,cs),
(187,353,o),
(197,476,o),
(206,600,cs),
(212,669,o),
(184,693,o),
(173,702,cs)
);
},
{
closed = 1;
nodes = (
(107,58,o),
(103,2,o),
(166,87,cs),
(199,131,o),
(314,81,o),
(331,4,cs),
(338,-24,o),
(440,124,o),
(435,148,cs),
(423,200,o),
(322,346,o),
(166,137,cs)
);
}
);
width = 476;
}
);
unicode = 108;
},
{
glyphname = m;
lastChange = "2023-10-19 02:51:16 +0000";
layers = (
{
background = {
shapes = (
{
ref = M;
}
);
};
layerId = m01;
shapes = (
{
closed = 1;
nodes = (
(236,726,o),
(108,599,o),
(125,587,cs),
(179,549,o),
(248,181,o),
(248,5,cs),
(248,-24,o),
(378,101,o),
(378,127,cs),
(378,307,o),
(311,673,o),
(251,715,cs)
);
},
{
closed = 1;
nodes = (
(-17,-16,o),
(47,7,o),
(66,49,cs),
(187,310,o),
(185,618,o),
(185,619,cs),
(185,654,o),
(115,605,o),
(115,573,cs),
(115,561,o),
(118,278,o),
(4,30,cs)
);
},
{
closed = 1;
nodes = (
(260,87,o),
(322,105,o),
(343,148,cs),
(455,374,o),
(503,620,o),
(503,621,cs),
(511,661,o),
(442,622,o),
(435,585,cs),
(433,575,o),
(389,349,o),
(283,132,cs)
);
},
{
closed = 1;
nodes = (
(542,713,o),
(414,583,o),
(442,583,cs),
(474,583,o),
(439,111,o),
(491,0,cs),
(500,-20,o),
(628,107,o),
(619,126,cs),
(567,239,o),
(608,713,o),
(564,713,cs)
);
}
);
width = 668;
}
);
unicode = 109;
},
{
glyphname = n;
lastChange = "2023-10-19 02:54:43 +0000";
layers = (
{
layerId = m01;
shapes = (
{
closed = 1;
nodes = (
(168,726,o),
(47,607,o),
(57,589,cs),
(148,426,o),
(248,117,o),
(351,21,cs),
(365,8,o),
(486,128,o),
(471,141,cs),
(370,235,o),
(270,544,o),
(179,707,cs)
);
},
{
closed = 1;
nodes = (
(22,-26,o),
(101,14,o),
(109,58,cs),
(120,119,o),
(152,597,o),
(152,598,cs),
(155,642,o),
(76,597,o),
(74,554,cs),
(72,538,o),
(42,83,o),
(31,22,cs)
);
},
{
closed = 1;
nodes = (
(469,726,o),
(345,609,o),
(355,591,cs),
(372,560,o),
(374,554,o),
(369,496,cs),
(334,42,o),
(321,28,o),
(378,1,cs),
(396,-7,o),
(516,113,o),
(496,123,cs),
(459,140,o),
(467,146,o),
(503,598,cs),
(508,662,o),
(498,672,o),
(479,707,cs)
);
}
);
width = 549;
}
);
unicode = 110;
},
{
glyphname = o;
lastChange = "2023-10-19 02:54:12 +0000";
layers = (
{
layerId = m01;
shapes = (
{
closed = 1;
nodes = (
(442,184,o),
(480,336,o),
(469,462,cs),
(457,604,o),
(383,712,o),
(291,717,cs),
(233,720,o),
(167,681,o),
(108,583,cs),
(52,491,o),
(29,389,o),
(30,295,cs),
(32,139,o),
(99,7,o),
(187,-12,cs),
(229,-21,o),
(277,-3,o),
(324,50,cs)
);
},
{
closed = 1;
nodes = (
(270,88,o),
(205,178,o),
(168,293,cs),
(138,389,o),
(129,501,o),
(166,563,cs),
(207,631,o),
(279,540,o),
(320,423,cs),
(356,321,o),
(368,199,o),
(318,142,cs)
);
}
);
width = 501;
}
);
unicode = 111;
},
{
glyphname = r;
lastChange = "2023-10-19 04:14:51 +0000";
layers = (
{
.lastUpdate = 719381691.545;
background = {
shapes = (
{
pos = (35,0);
ref = b;
}
);
};
layerId = m01;
shapes = (
{
closed = 1;
nodes = (
(97,354,o),
(31,207,o),
(63,225,cs),
(264,343,o),
(379,230,o),
(310,20,cs),
(289,-44,o),
(419,55,o),
(438,114,cs),
(504,314,o),
(401,433,o),
(252,415,cs),
(211,410,o),
(167,395,o),
(121,369,cs)
);
},
{
closed = 1;
nodes = (
(152,319,o),
(154,237,o),
(242,309,cs),
(533,549,o),
(446,714,o),
(312,716,cs),
(238,716,o),
(150,667,o),
(103,553,cs),
(57,440,o),
(116,383,o),
(162,492,cs),
(178,530,o),
(231,545,o),
(269,536,cs),
(318,524,o),
(343,473,o),
(230,382,cs)
);
},
{
closed = 1;
nodes = (
(177,538,o),
(106,559,o),
(90,509,cs),
(57,406,o),
(34,81,o),
(30,15,cs),
(26,-30,o),
(106,18,o),
(108,59,cs),
(112,105,o),
(141,426,o),
(162,491,cs)
);
}
);
width = 493;
}
);
unicode = 114;
},
{
glyphname = s;
lastChange = "2023-10-19 04:18:51 +0000";
layers = (
{
.lastUpdate = 719381974.902;
layerId = m01;
shapes = (
{
closed = 1;
nodes = (
(70,270,o),
(4,106,o),
(17,80,cs),
(34,48,o),
(92,-14,o),
(166,-15,cs),
(215,-17,o),
(270,9,o),
(325,86,cs),
(498,333,o),
(400,352,o),
(295,420,cs),
(136,524,o),
(167,552,o),
(172,559,cs),
(189,583,o),
(323,561,o),
(375,447,cs),
(386,422,o),
(449,592,o),
(439,613,cs),
(426,643,o),
(363,716,o),
(286,714,cs),
(243,714,o),
(196,691,o),
(150,625,cs),
(-5,404,o),
(66,358,o),
(171,290,cs),
(331,185,o),
(318,174,o),
(303,152,cs),
(282,121,o),
(132,147,o),
(83,246,cs)
);
}
);
width = 470;
}
);
unicode = 115;
},
{
glyphname = t;
lastChange = "2023-10-19 04:01:04 +0000";
layers = (
{
.lastUpdate = 719380864.775;
layerId = m01;
shapes = (
{
closed = 1;
nodes = (
(430,537,o),
(498,704,o),
(456,697,cs),
(357,680,o),
(144,713,o),
(81,680,cs),
(59,668,o),
(13,496,o),
(37,508,cs),
(90,535,o),
(295,514,o),
(396,531,cs)
);
},
{
closed = 1;
nodes = (
(285,570,o),
(151,443,o),
(160,423,cs),
(173,393,o),
(112,78,o),
(145,-2,cs),
(154,-22,o),
(285,109,o),
(277,128,cs),
(246,202,o),
(309,513,o),
(294,549,cs)
);
}
);
width = 439;
}
);
unicode = 116;
},
{
glyphname = u;
lastChange = "2023-10-19 03:58:46 +0000";
layers = (
{
.lastUpdate = 719380726.844;
layerId = m01;
shapes = (
{
closed = 1;
nodes = (
(164,720,o),
(36,593,o),
(52,571,cs),
(60,559,o),
(69,541,o),
(65,495,cs),
(55,397,o),
(45,298,o),
(36,199,cs),
(24,79,o),
(109,-50,o),
(228,-6,cs),
(309,24,o),
(403,154,o),
(412,248,cs),
(416,288,o),
(439,680,o),
(439,687,cs),
(442,731,o),
(363,686,o),
(361,643,cs),
(359,624,o),
(337,302,o),
(332,238,cs),
(321,153,o),
(266,138,o),
(266,138,cs),
(195,118,o),
(169,181,o),
(180,266,cs),
(190,391,o),
(199,490,o),
(209,589,cs),
(216,657,o),
(192,681,o),
(180,697,cs)
);
}
);
width = 474;
}
);
unicode = 117;
},
{
glyphname = v;
kernLeft = v;
kernRight = v;
lastChange = "2023-10-19 03:51:15 +0000";
layers = (
{
.lastUpdate = 719380275.52;
layerId = m01;
shapes = (
{
closed = 1;
nodes = (
(493,739,o),
(416,706,o),
(404,659,cs),
(359,486,o),
(241,134,o),
(228,82,cs),
(217,33,o),
(295,70,o),
(306,114,cs),
(315,154,o),
(435,514,o),
(480,691,cs)
);
},
{
closed = 1;
nodes = (
(200,-34,o),
(327,94,o),
(299,116,cs),
(282,130,o),
(266,143,o),
(252,230,cs),
(240,304,o),
(236,429,o),
(211,600,cs),
(201,668,o),
(185,708,o),
(157,715,cs),
(138,720,o),
(9,592,o),
(33,587,cs),
(45,584,o),
(66,548,o),
(75,482,cs),
(100,317,o),
(96,194,o),
(108,124,cs),
(123,29,o),
(148,8,o),
(173,-12,cs)
);
}
);
width = 456;
}
);
unicode = 118;
},
